<?xml version="1.0" encoding="UTF-8"?>
<svg height="33" version="1.1" viewBox="0 0 409 137" width="333" xmlns="http://www.w3.org/2000/svg">
    <!-- Generator: Sketch 62 (91390) - https://sketch.com -->
    <title>Page 1</title>
    <desc>Created with Sketch.</desc>
    <g fill="none" fill-rule="evenodd" id="Page-1" stroke="none" stroke-width="1">
        <g fill="#FFFFFF" id="Taurus-Logo_Primary">
            <polyline id="Fill-1"
                      points="161.131 64.102 149.928 64.102 149.928 90.215 143.868 90.215 143.868 64.102 132.664 64.102 132.664 59.262 161.131 59.262 161.131 64.102"></polyline>
            <path d="M236.63,59.262 L236.63,77.66 C236.63,82.629 239.726,86.117 245.262,86.117 C250.711,86.117 253.85,82.629 253.85,77.66 L253.85,59.262 L259.909,59.262 L259.909,78.052 C259.909,85.812 254.635,91.087 245.262,91.087 C235.846,91.087 230.57,85.812 230.57,78.052 L230.57,59.262 L236.63,59.262"
                  id="Fill-2"></path>
            <path d="M288.635,73.736 L297.267,73.736 C301.757,73.736 303.283,71.426 303.283,68.679 C303.283,65.976 301.801,63.753 297.267,63.753 L288.635,63.753 L288.635,73.736 Z M296.439,78.095 L288.635,78.095 L288.635,90.215 L282.575,90.215 L282.575,59.262 L298.401,59.262 C306.944,59.262 309.605,63.84 309.605,68.636 C309.605,72.167 307.73,76.003 302.673,77.311 L310.651,90.215 L303.85,90.215 L296.439,78.095 L296.439,78.095 Z"
                  id="Fill-3"></path>
            <path d="M336.891,59.262 L336.891,77.66 C336.891,82.629 339.986,86.117 345.523,86.117 C350.972,86.117 354.11,82.629 354.11,77.66 L354.11,59.262 L360.17,59.262 L360.17,78.052 C360.17,85.812 354.896,91.087 345.523,91.087 C336.107,91.087 330.831,85.812 330.831,78.052 L330.831,59.262 L336.891,59.262"
                  id="Fill-4"></path>
            <path d="M379.436,82.106 L384.493,79.839 C385.975,83.719 389.375,86.466 395.217,86.466 C399.795,86.466 402.803,85.114 402.803,81.888 C402.803,79.011 400.972,77.965 397.092,77.354 L390.465,76.439 C384.624,75.523 381.224,72.864 381.224,67.546 C381.224,61.878 386.193,58.391 394.52,58.391 C401.538,58.391 406.726,60.876 408.775,66.151 L404.067,68.679 C402.672,64.973 399.445,62.881 394.258,62.881 C389.855,62.881 387.239,64.45 387.239,67.11 C387.239,69.682 388.722,70.859 392.645,71.469 L399.01,72.428 C405.418,73.387 408.905,75.785 408.905,81.322 C408.905,87.119 404.11,91.087 394.999,91.087 C386.542,91.087 381.224,87.599 379.436,82.106"
                  id="Fill-5"></path>
            <g id="Group-10">
                <polyline id="Fill-8"
                          points="75.735 33.751 75.735 136.999 56.216 136.999 56.216 33.751 0 33.751 0 17.356 75.735 17.356 75.735 33.751"></polyline>
                <polygon id="Fill-9" points="75.735 17.356 132.664 17.356 132.664 0.961 75.735 0.961"></polygon>
            </g>
            <path d="M192.429,68.766 C193.345,66.804 193.911,65.54 194.391,63.797 L194.478,63.797 C194.914,65.54 195.481,66.804 196.397,68.766 L205.027,90.215 L211.349,90.215 L197.835,59.262 L190.99,59.262 L177.476,90.215 L183.797,90.215 L192.429,68.766"
                  id="Fill-6"></path>
        </g>
    </g>
</svg>
